# xmcd
#
# Track frame offsets:
#	150
#	13780
#	26670
#	42855
#	48775
#	57220
#	65430
#	73965
#	78630
#	86972
#	95995
#	105987
#	114832
#	125012
#	141740
#	151892
#	153000
#	165007
#	166802
#	171967
#	188112
#	199920
#	205087
#
# Disc length: 3100 seconds
#
# Revision: 1
# Processed by: cddbd v1.4PL0 Copyright (c) Steve Scherf et al.
# Submitted via: audiograbber 1.81.02
#
DISCID=390c1a17
DTITLE=Anna Haentjens - Kinderzeit
DYEAR=1900
DGENRE=
TTITLE0=Bekenntnis
TTITLE1=Anna
TTITLE2=Käm ich im zweiten Leben auf die Welt
TTITLE3=Grösser ist nicht stärker
TTITLE4=Aus: Abschied von den Eltern
TTITLE5=Bloß keine Mittelmäßigkeit
TTITLE6=Die Sonne
TTITLE7=Was fehlt
TTITLE8=Die Entwicklung der Menschheit
TTITLE9=Endlich groß sein
TTITLE10=Die Schule der Tiere
TTITLE11=Kinder des Glücks
TTITLE12=Ich bin ein Narr
TTITLE13=Wir waren ja nur Kinder
TTITLE14=Auf dem Karussel
TTITLE15=Eene meene Tintenmix
TTITLE16=Er war ein Junge von sechseinhalb Jahr
TTITLE17=Felix
TTITLE18=Biografie für viele
TTITLE19=Blau ist mein Schönstes
TTITLE20=Der Traum vom Fliegen
TTITLE21=Geheimnis Schrift
TTITLE22=Der Zauberlehrling
EXTD=
EXTT0=
EXTT1=
EXTT2=
EXTT3=
EXTT4=
EXTT5=
EXTT6=
EXTT7=
EXTT8=
EXTT9=
EXTT10=
EXTT11=
EXTT12=
EXTT13=
EXTT14=
EXTT15=
EXTT16=
EXTT17=
EXTT18=
EXTT19=
EXTT20=
EXTT21=
EXTT22=
PLAYORDER=
